<svg width="32" height="32" viewBox="0 0 32 32" fill="none" xmlns="http://www.w3.org/2000/svg">
<path opacity="0.4" d="M10.2 27.88C10.16 27.88 10.1066 27.9066 10.0666 27.9066C7.47996 26.6266 5.37329 24.5066 4.07996 21.92C4.07996 21.88 4.10662 21.8266 4.10662 21.7866C5.73329 22.2666 7.41329 22.6266 9.07996 22.9066C9.37329 24.5866 9.71996 26.2533 10.2 27.88Z" fill="black"/>
<path opacity="0.4" d="M27.92 21.9333C26.6 24.5866 24.4 26.7333 21.72 28.0266C22.2266 26.3333 22.6533 24.6266 22.9333 22.9066C24.6133 22.6266 26.2666 22.2666 27.8933 21.7866C27.88 21.84 27.92 21.8933 27.92 21.9333Z" fill="black"/>
<path opacity="0.4" d="M28.0266 10.2801C26.3466 9.77339 24.6533 9.36006 22.9333 9.06672C22.6533 7.34672 22.24 5.64006 21.72 3.97339C24.48 5.29339 26.7066 7.52006 28.0266 10.2801Z" fill="black"/>
<path opacity="0.4" d="M10.2001 4.11996C9.72006 5.74662 9.37339 7.39996 9.09339 9.07996C7.37339 9.34662 5.66672 9.77329 3.97339 10.28C5.26672 7.59996 7.41339 5.39996 10.0667 4.07996C10.1067 4.07996 10.1601 4.11996 10.2001 4.11996Z" fill="black"/>
<path d="M20.6533 8.78663C17.56 8.43996 14.44 8.43996 11.3467 8.78663C11.68 6.95996 12.1067 5.13329 12.7067 3.37329C12.7333 3.26663 12.72 3.18663 12.7333 3.07996C13.7867 2.82663 14.8667 2.66663 16 2.66663C17.12 2.66663 18.2133 2.82663 19.2533 3.07996C19.2667 3.18663 19.2667 3.26663 19.2933 3.37329C19.8933 5.14663 20.32 6.95996 20.6533 8.78663Z" fill="black"/>
<path d="M8.78663 20.6533C6.94663 20.32 5.13329 19.8933 3.37329 19.2933C3.26663 19.2667 3.18663 19.28 3.07996 19.2667C2.82663 18.2133 2.66663 17.1333 2.66663 16C2.66663 14.88 2.82663 13.7867 3.07996 12.7467C3.18663 12.7333 3.26663 12.7333 3.37329 12.7067C5.14663 12.12 6.94663 11.68 8.78663 11.3467C8.45329 14.44 8.45329 17.56 8.78663 20.6533Z" fill="black"/>
<path d="M29.3334 16C29.3334 17.1333 29.1734 18.2133 28.92 19.2667C28.8134 19.28 28.7334 19.2667 28.6267 19.2933C26.8534 19.88 25.04 20.32 23.2134 20.6533C23.56 17.56 23.56 14.44 23.2134 11.3467C25.04 11.68 26.8667 12.1067 28.6267 12.7067C28.7334 12.7333 28.8134 12.7467 28.92 12.7467C29.1734 13.8 29.3334 14.88 29.3334 16Z" fill="black"/>
<path d="M20.6533 23.2134C20.32 25.0534 19.8933 26.8667 19.2933 28.6267C19.2667 28.7334 19.2667 28.8134 19.2533 28.92C18.2133 29.1734 17.12 29.3334 16 29.3334C14.8667 29.3334 13.7867 29.1734 12.7333 28.92C12.72 28.8134 12.7333 28.7334 12.7067 28.6267C12.12 26.8534 11.68 25.0534 11.3467 23.2134C12.8933 23.3867 14.44 23.5067 16 23.5067C17.56 23.5067 19.12 23.3867 20.6533 23.2134Z" fill="black"/>
<path d="M21.0177 21.0177C17.6829 21.4385 14.317 21.4385 10.9822 21.0177C10.5614 17.6829 10.5614 14.317 10.9822 10.9822C14.317 10.5614 17.6829 10.5614 21.0177 10.9822C21.4385 14.317 21.4385 17.6829 21.0177 21.0177Z" fill="black"/>
</svg>
