<svg width="109" height="20" viewBox="0 0 109 20" fill="none" xmlns="http://www.w3.org/2000/svg">
<path d="M10.6666 0L12.9118 6.90983H20.1772L14.2993 11.1803L16.5445 18.0902L10.6666 13.8197L4.78877 18.0902L7.03391 11.1803L1.15606 6.90983H8.42149L10.6666 0Z" fill="#FF9357"/>
<path d="M32.6666 0L34.9118 6.90983H42.1772L36.2993 11.1803L38.5445 18.0902L32.6666 13.8197L26.7888 18.0902L29.0339 11.1803L23.1561 6.90983H30.4215L32.6666 0Z" fill="#FF9357"/>
<path d="M54.6666 0L56.9118 6.90983H64.1772L58.2993 11.1803L60.5445 18.0902L54.6666 13.8197L48.7888 18.0902L51.0339 11.1803L45.1561 6.90983H52.4215L54.6666 0Z" fill="#FF9357"/>
<path d="M76.6666 0L78.9118 6.90983H86.1772L80.2993 11.1803L82.5445 18.0902L76.6666 13.8197L70.7888 18.0902L73.0339 11.1803L67.1561 6.90983H74.4215L76.6666 0Z" fill="#FF9357"/>
<path d="M98.6666 0L100.912 6.90983H108.177L102.299 11.1803L104.544 18.0902L98.6666 13.8197L92.7888 18.0902L95.0339 11.1803L89.1561 6.90983H96.4215L98.6666 0Z" fill="#FF9357"/>
</svg>
