<svg width="134" height="36" viewBox="0 0 134 36" fill="none" xmlns="http://www.w3.org/2000/svg">
<g clip-path="url(#clip0_1_783)">
<path fill-rule="evenodd" clip-rule="evenodd" d="M12.0421 0.453125C10.0609 0.453125 8.16085 1.24015 6.75993 2.64107L0 9.40096V12.4952C0 14.6813 0.93902 16.648 2.43572 18.0141C0.93902 19.3802 0 21.3469 0 23.533V26.6272L6.75993 33.3871C8.16085 34.7881 10.0609 35.5751 12.0421 35.5751C14.2282 35.5751 16.1949 34.6361 17.561 33.1394C18.927 34.6361 20.8938 35.5751 23.0799 35.5751C25.0611 35.5751 26.9611 34.7881 28.362 33.3871L35.122 26.6272V23.533C35.122 21.3469 34.183 19.3802 32.6862 18.0141C34.183 16.648 35.122 14.6813 35.122 12.4952V9.40096L28.362 2.64107C26.9611 1.24015 25.0611 0.453125 23.0799 0.453125C20.8938 0.453125 18.927 1.39214 17.561 2.88884C16.1949 1.39214 14.2282 0.453125 12.0421 0.453125ZM22.6175 18.0141C22.5333 17.9373 22.4507 17.8583 22.3697 17.7774L17.561 12.9686L12.7523 17.7774C12.6713 17.8583 12.5887 17.9373 12.5045 18.0141C12.5887 18.0909 12.6713 18.1699 12.7523 18.2508L17.561 23.0595L22.3697 18.2508C22.4507 18.1699 22.5333 18.0909 22.6175 18.0141ZM19.5122 26.6272V28.105C19.5122 30.0753 21.1095 31.6727 23.0799 31.6727C24.026 31.6727 24.9335 31.2968 25.6026 30.6277L31.2196 25.0107V23.533C31.2196 21.5626 29.6222 19.9653 27.6519 19.9653C26.7057 19.9653 25.7982 20.3412 25.1291 21.0103L19.5122 26.6272ZM15.6098 26.6272L9.99281 21.0103C9.32374 20.3412 8.41631 19.9653 7.47011 19.9653C5.49974 19.9653 3.90244 21.5626 3.90244 23.533V25.0107L9.51937 30.6277C10.1884 31.2968 11.0959 31.6727 12.0421 31.6727C14.0124 31.6727 15.6098 30.0753 15.6098 28.105V26.6272ZM15.6098 7.92323V9.40096L9.99281 15.0179C9.32374 15.687 8.41631 16.0629 7.47011 16.0629C5.49974 16.0629 3.90244 14.4655 3.90244 12.4952V11.0174L9.51937 5.40051C10.1884 4.73144 11.0959 4.35557 12.0421 4.35557C14.0124 4.35557 15.6098 5.95286 15.6098 7.92323ZM25.1291 15.0179L19.5122 9.40096V7.92323C19.5122 5.95286 21.1095 4.35557 23.0799 4.35557C24.026 4.35557 24.9335 4.73144 25.6026 5.40051L31.2196 11.0174V12.4952C31.2196 14.4655 29.6222 16.0629 27.6519 16.0629C26.7057 16.0629 25.7982 15.687 25.1291 15.0179Z" fill="#FF9357"/>
</g>
<path d="M62.1139 26H57.3859L51.1459 16.52V26H46.4179V9.032H51.1459L57.3859 18.632V9.032H62.1139V26ZM64.3386 8.816C64.3386 8.112 64.5946 7.536 65.1066 7.088C65.6186 6.624 66.2906 6.392 67.1226 6.392C67.9546 6.392 68.6186 6.624 69.1146 7.088C69.6106 7.536 69.8586 8.112 69.8586 8.816C69.8586 9.488 69.6026 10.048 69.0906 10.496C68.5946 10.944 67.9386 11.168 67.1226 11.168C66.2906 11.168 65.6186 10.944 65.1066 10.496C64.5946 10.048 64.3386 9.488 64.3386 8.816ZM69.4506 12.536V26H64.7226V12.536H69.4506ZM77.0506 12.368C77.9946 12.368 78.8106 12.576 79.4986 12.992C80.1866 13.392 80.6986 13.952 81.0346 14.672V8.24H85.7626V26H81.0346V23.864C80.6986 24.584 80.1866 25.152 79.4986 25.568C78.8106 25.968 77.9946 26.168 77.0506 26.168C75.9786 26.168 75.0106 25.896 74.1466 25.352C73.2826 24.792 72.6026 23.992 72.1066 22.952C71.6106 21.896 71.3626 20.664 71.3626 19.256C71.3626 17.848 71.6106 16.624 72.1066 15.584C72.6026 14.544 73.2826 13.752 74.1466 13.208C75.0106 12.648 75.9786 12.368 77.0506 12.368ZM78.6106 16.496C77.8746 16.496 77.2746 16.744 76.8106 17.24C76.3626 17.72 76.1386 18.392 76.1386 19.256C76.1386 20.136 76.3626 20.824 76.8106 21.32C77.2746 21.8 77.8746 22.04 78.6106 22.04C79.3146 22.04 79.8986 21.792 80.3626 21.296C80.8266 20.8 81.0586 20.12 81.0586 19.256C81.0586 18.408 80.8266 17.736 80.3626 17.24C79.8986 16.744 79.3146 16.496 78.6106 16.496ZM101.284 19.016C101.284 19.352 101.244 19.72 101.164 20.12H92.2596C92.3396 21.64 93.0036 22.4 94.2516 22.4C94.7156 22.4 95.0996 22.288 95.4036 22.064C95.7076 21.84 95.9156 21.544 96.0276 21.176H101.02C100.844 22.12 100.452 22.976 99.8436 23.744C99.2356 24.496 98.4676 25.088 97.5396 25.52C96.6116 25.952 95.5956 26.168 94.4916 26.168C93.1476 26.168 91.9556 25.896 90.9156 25.352C89.8916 24.792 89.0916 23.992 88.5156 22.952C87.9396 21.896 87.6516 20.664 87.6516 19.256C87.6516 17.848 87.9396 16.624 88.5156 15.584C89.0916 14.544 89.8996 13.752 90.9396 13.208C91.9796 12.648 93.1636 12.368 94.4916 12.368C95.8356 12.368 97.0196 12.64 98.0436 13.184C99.0676 13.728 99.8596 14.504 100.42 15.512C100.996 16.52 101.284 17.688 101.284 19.016ZM96.4836 18.152C96.4996 17.464 96.3156 16.944 95.9316 16.592C95.5476 16.24 95.0676 16.064 94.4916 16.064C93.8676 16.064 93.3556 16.24 92.9556 16.592C92.5716 16.944 92.3476 17.464 92.2836 18.152H96.4836ZM105.56 11.168C104.728 11.168 104.056 10.944 103.544 10.496C103.048 10.048 102.8 9.488 102.8 8.816C102.8 8.112 103.048 7.536 103.544 7.088C104.056 6.624 104.728 6.392 105.56 6.392C106.392 6.392 107.056 6.624 107.552 7.088C108.064 7.536 108.32 8.112 108.32 8.816C108.32 9.488 108.064 10.048 107.552 10.496C107.056 10.944 106.392 11.168 105.56 11.168ZM101.096 28.4H102.104C102.504 28.4 102.792 28.312 102.968 28.136C103.144 27.976 103.232 27.712 103.232 27.344V12.536H107.936V27.272C107.936 30.712 106.208 32.432 102.752 32.432H101.096V28.4ZM110.112 8.816C110.112 8.112 110.368 7.536 110.88 7.088C111.392 6.624 112.064 6.392 112.896 6.392C113.728 6.392 114.392 6.624 114.888 7.088C115.384 7.536 115.632 8.112 115.632 8.816C115.632 9.488 115.376 10.048 114.864 10.496C114.368 10.944 113.712 11.168 112.896 11.168C112.064 11.168 111.392 10.944 110.88 10.496C110.368 10.048 110.112 9.488 110.112 8.816ZM115.224 12.536V26H110.496V12.536H115.224ZM122.824 12.368C123.768 12.368 124.584 12.576 125.272 12.992C125.976 13.392 126.496 13.952 126.832 14.672V12.536H131.536V26H126.832V23.864C126.496 24.584 125.976 25.152 125.272 25.568C124.584 25.968 123.768 26.168 122.824 26.168C121.752 26.168 120.784 25.896 119.92 25.352C119.056 24.792 118.376 23.992 117.88 22.952C117.384 21.896 117.136 20.664 117.136 19.256C117.136 17.848 117.384 16.624 117.88 15.584C118.376 14.544 119.056 13.752 119.92 13.208C120.784 12.648 121.752 12.368 122.824 12.368ZM124.384 16.496C123.648 16.496 123.048 16.744 122.584 17.24C122.136 17.72 121.912 18.392 121.912 19.256C121.912 20.136 122.136 20.824 122.584 21.32C123.048 21.8 123.648 22.04 124.384 22.04C125.088 22.04 125.672 21.792 126.136 21.296C126.6 20.8 126.832 20.12 126.832 19.256C126.832 18.408 126.6 17.736 126.136 17.24C125.672 16.744 125.088 16.496 124.384 16.496Z" fill="white"/>
<defs>
<clipPath id="clip0_1_783">
<rect width="35.122" height="36" fill="white"/>
</clipPath>
</defs>
</svg>
